<svg width="24" height="14" viewBox="0 0 24 14" fill="none" xmlns="http://www.w3.org/2000/svg">
<path d="M15.6113 10.4507C15.5078 10.3511 15.5488 10.2163 15.7051 10.1499C15.8613 10.0835 16.0703 10.1108 16.1758 10.2085C16.9141 10.9116 16.5586 11.4819 16.2168 12.0288C15.959 12.4429 15.7109 12.8394 16.168 13.2378C16.2793 13.3354 16.2461 13.4702 16.0957 13.5405C15.9453 13.6108 15.7324 13.5913 15.6211 13.4937C14.9434 12.9019 15.2578 12.396 15.5879 11.8687C15.8633 11.4253 16.1523 10.9644 15.6113 10.4507ZM2.8457 5.90771H17.2305C17.418 5.90771 17.5703 6.06006 17.5703 6.24756V8.64209H22.2832C22.5684 8.64209 22.8281 8.5249 23.0156 8.3374C23.2031 8.1499 23.3203 7.89014 23.3203 7.60498V2.13623C23.3203 1.85107 23.2031 1.59131 23.0156 1.40381C22.8281 1.21631 22.5684 1.09912 22.2832 1.09912H1.71875C1.43359 1.09912 1.17383 1.21631 0.986328 1.40381C0.796875 1.59131 0.679688 1.85107 0.679688 2.13623V7.60498C0.679688 7.89014 0.796875 8.1499 0.984375 8.3374C1.17187 8.5249 1.43164 8.64209 1.7168 8.64209H2.50391V6.24756C2.50586 6.06006 2.6582 5.90771 2.8457 5.90771ZM16.8906 6.5874H3.18555V8.55811H16.8906V6.5874ZM2.9707 3.08154C2.7832 3.08154 2.63086 2.9292 2.63086 2.7417C2.63086 2.5542 2.7832 2.40186 2.9707 2.40186H21.2793C21.4668 2.40186 21.6191 2.5542 21.6191 2.7417C21.6191 2.9292 21.4668 3.08154 21.2793 3.08154H2.9707ZM19.2539 6.66553C19.5195 6.66553 19.7344 6.88037 19.7344 7.146C19.7344 7.41162 19.5195 7.62646 19.2539 7.62646C18.9883 7.62646 18.7734 7.41162 18.7734 7.146C18.7734 6.88037 18.9902 6.66553 19.2539 6.66553ZM21.2598 6.66553C21.5254 6.66553 21.7402 6.88037 21.7402 7.146C21.7402 7.41162 21.5254 7.62646 21.2598 7.62646C20.9941 7.62646 20.7793 7.41162 20.7793 7.146C20.7793 6.88037 20.9941 6.66553 21.2598 6.66553ZM1.71875 0.41748H22.2832C22.7559 0.41748 23.1855 0.61084 23.4961 0.921387C23.8066 1.23193 24 1.66162 24 2.13428V7.60498C24 8.07764 23.8066 8.50732 23.4961 8.81787C23.1855 9.12842 22.7559 9.32178 22.2832 9.32178H1.71875C1.24609 9.32178 0.816406 9.12842 0.505859 8.81787C0.193359 8.50732 0 8.07764 0 7.60498V2.13623C0 1.66357 0.193359 1.23389 0.503906 0.92334C0.816406 0.61084 1.24609 0.41748 1.71875 0.41748ZM2.9707 4.66748C2.7832 4.66748 2.63086 4.51514 2.63086 4.32764C2.63086 4.14014 2.7832 3.98779 2.9707 3.98779H21.2793C21.4668 3.98779 21.6191 4.14014 21.6191 4.32764C21.6191 4.51514 21.4668 4.66748 21.2793 4.66748H2.9707ZM4.17383 10.4507C4.07031 10.3511 4.11133 10.2163 4.26758 10.1499C4.42383 10.0835 4.63281 10.1108 4.73828 10.2085C5.47656 10.9116 5.12109 11.4819 4.7793 12.0288C4.52148 12.4429 4.27344 12.8394 4.73047 13.2378C4.8418 13.3354 4.80859 13.4702 4.6582 13.5405C4.50781 13.6108 4.29492 13.5913 4.18359 13.4937C3.50586 12.9019 3.82031 12.396 4.15039 11.8687C4.42578 11.4253 4.71289 10.9644 4.17383 10.4507ZM7.0332 10.4507C6.92969 10.3511 6.9707 10.2163 7.12695 10.1499C7.2832 10.0835 7.49219 10.1108 7.59766 10.2085C8.33594 10.9116 7.98047 11.4819 7.63867 12.0288C7.38086 12.4429 7.13281 12.8394 7.58984 13.2378C7.70117 13.3354 7.66797 13.4702 7.51758 13.5405C7.36719 13.6108 7.1543 13.5913 7.04297 13.4937C6.36523 12.9019 6.67969 12.396 7.00977 11.8687C7.28516 11.4253 7.57227 10.9644 7.0332 10.4507ZM9.89258 10.4507C9.78906 10.3511 9.83008 10.2163 9.98633 10.1499C10.1426 10.0835 10.3516 10.1108 10.457 10.2085C11.1953 10.9116 10.8398 11.4819 10.498 12.0288C10.2402 12.4429 9.99219 12.8394 10.4492 13.2378C10.5605 13.3354 10.5273 13.4702 10.377 13.5405C10.2266 13.6108 10.0137 13.5913 9.90234 13.4937C9.22461 12.9019 9.53906 12.396 9.86914 11.8687C10.1445 11.4253 10.4336 10.9644 9.89258 10.4507ZM12.752 10.4507C12.6484 10.3511 12.6895 10.2163 12.8457 10.1499C13.002 10.0835 13.2109 10.1108 13.3164 10.2085C14.0547 10.9116 13.6992 11.4819 13.3574 12.0288C13.0996 12.4429 12.8516 12.8394 13.3086 13.2378C13.4199 13.3354 13.3867 13.4702 13.2363 13.5405C13.0859 13.6108 12.873 13.5913 12.7617 13.4937C12.084 12.9019 12.4004 12.396 12.7285 11.8687C13.0039 11.4253 13.293 10.9644 12.752 10.4507Z" fill="black"/>
</svg>
