<svg width="18" height="19" viewBox="0 0 18 19" fill="none" xmlns="http://www.w3.org/2000/svg">
<path d="M9 0.965332C4.02823 0.965332 0 4.99356 0 9.96533C0 14.9371 4.02823 18.9653 9 18.9653C13.9718 18.9653 18 14.9371 18 9.96533C18 4.99356 13.9718 0.965332 9 0.965332ZM9 4.4492C10.7637 4.4492 12.1935 5.87904 12.1935 7.64275C12.1935 9.40646 10.7637 10.8363 9 10.8363C7.23629 10.8363 5.80645 9.40646 5.80645 7.64275C5.80645 5.87904 7.23629 4.4492 9 4.4492ZM9 16.9331C6.86976 16.9331 4.96089 15.9678 3.68347 14.4581C4.36573 13.1734 5.70121 12.2879 7.25806 12.2879C7.34516 12.2879 7.43226 12.3024 7.51573 12.3278C7.9875 12.4803 8.48105 12.5782 9 12.5782C9.51895 12.5782 10.0161 12.4803 10.4843 12.3278C10.5677 12.3024 10.6548 12.2879 10.7419 12.2879C12.2988 12.2879 13.6343 13.1734 14.3165 14.4581C13.0391 15.9678 11.1302 16.9331 9 16.9331Z" fill="white"/>
</svg>
