<svg width="37" height="37" viewBox="0 0 48 49" fill="none" xmlns="http://www.w3.org/2000/svg">
<path d="M48 24.0153C48.0025 20.0198 47.0075 16.0869 45.1053 12.5734C43.203 9.05979 40.4536 6.07674 37.1065 3.8948C33.7594 1.71285 29.9206 0.401052 25.9382 0.0783927C21.9557 -0.244267 17.9558 0.432424 14.3011 2.04708C10.6464 3.66174 7.45265 6.16327 5.00955 9.32477C2.56644 12.4863 0.951285 16.2077 0.310585 20.1514C-0.330116 24.0952 0.0239146 28.1365 1.34056 31.9088C2.65721 35.6811 4.89481 39.065 7.8504 41.7536C7.90883 41.823 7.97688 41.8837 8.05248 41.9338C12.4412 45.8507 18.1179 48.0154 24.0003 48.0153C29.8827 48.0152 35.5594 45.8503 39.948 41.9334C40.0233 41.8834 40.091 41.823 40.1492 41.754C42.6229 39.5086 44.5994 36.7703 45.9515 33.7153C47.3036 30.6603 48.0014 27.3561 48 24.0153ZM1.92 24.0153C1.91748 20.3852 2.80998 16.8106 4.51849 13.6077C6.22701 10.4049 8.69883 7.67272 11.7151 5.65304C14.7314 3.63336 18.1992 2.3885 21.8113 2.02868C25.4235 1.66885 29.0686 2.20516 32.4241 3.59011C35.7795 4.97506 38.7418 7.16595 41.0486 9.9688C43.3553 12.7716 44.9355 16.1 45.6491 19.6592C46.3627 23.2184 46.1879 26.8986 45.1399 30.3741C44.092 33.8496 42.2033 37.0131 39.6411 39.5846C37.2581 35.5939 33.4347 32.6697 28.9593 31.4149C31.0393 30.3084 32.6896 28.5381 33.6476 26.3857C34.6056 24.2332 34.8163 21.8222 34.2461 19.5362C33.6759 17.2502 32.3577 15.2206 30.501 13.7701C28.6444 12.3197 26.356 11.5318 24 11.5318C21.644 11.5318 19.3556 12.3197 17.499 13.7701C15.6423 15.2206 14.3241 17.2502 13.7539 19.5362C13.1837 21.8222 13.3944 24.2332 14.3524 26.3857C15.3104 28.5381 16.9607 30.3084 19.0407 31.4149C14.5653 32.6697 10.7419 35.5938 8.35886 39.5844C6.31575 37.5393 4.69553 35.1117 3.59073 32.4404C2.48594 29.769 1.91822 26.9061 1.92 24.0153ZM24 30.7353C22.2912 30.7353 20.6207 30.2286 19.1999 29.2792C17.779 28.3298 16.6716 26.9804 16.0177 25.4017C15.3637 23.8229 15.1926 22.0857 15.526 20.4097C15.8594 18.7337 16.6823 17.1942 17.8906 15.9859C19.0989 14.7776 20.6384 13.9547 22.3144 13.6213C23.9904 13.2879 25.7276 13.459 27.3064 14.113C28.8851 14.7669 30.2345 15.8743 31.1839 17.2952C32.1333 18.716 32.64 20.3865 32.64 22.0953C32.6374 24.386 31.7263 26.5821 30.1066 28.2018C28.4868 29.8216 26.2907 30.7327 24 30.7353ZM9.80754 40.9154C11.2324 38.4073 13.2964 36.3216 15.7894 34.8706C18.2824 33.4197 21.1154 32.6553 24 32.6553C26.8845 32.6553 29.7175 33.4197 32.2105 34.8707C34.7036 36.3217 36.7675 38.4074 38.1923 40.9155C34.2199 44.2608 29.1933 46.0953 23.9999 46.0953C18.8065 46.0953 13.78 44.2607 9.80754 40.9154Z" fill="#F6F3EF"/>
</svg>
