<svg width="60" height="56" viewBox="0 0 70 56" fill="none" xmlns="http://www.w3.org/2000/svg">
<path d="M28.193 34.8067L12.8579 50.1417M30.3838 16.1852C39.1469 7.4225 52.8388 2.49334 59.9587 3.04133C60.5063 10.1609 55.5772 23.8532 46.8144 32.6159C38.0513 41.3786 28.193 47.951 22.7162 50.1417L12.8579 40.2834C15.0487 34.8067 21.621 24.9484 30.3838 16.1852Z" stroke="#342B2D" stroke-width="4.64723" stroke-linecap="round" stroke-linejoin="round"/>
<path d="M47.2252 22.0729C45.486 23.8121 42.6661 23.8121 40.9269 22.0729C39.1877 20.3337 39.1876 17.5138 40.9269 15.7746C42.6661 14.0353 45.486 14.0353 47.2252 15.7746C48.9645 17.5138 48.9645 20.3337 47.2252 22.0729Z" fill="black" stroke="#342B2D" stroke-width="0.387269"/>
<path d="M39.1469 40.2835L39.7545 46.9662C40.0562 50.2851 38.5579 53.511 35.828 55.4222L29.2886 59.9997L28.741 47.403M22.7162 23.8528L16.0335 23.2452C14.4031 23.097 12.7625 23.382 11.2776 24.0715C9.79272 24.761 8.51631 25.8305 7.57752 27.1717L3 33.7111L15.5967 34.2587" stroke="#342B2D" stroke-width="4.64723" stroke-linecap="round" stroke-linejoin="round"/>
</svg>
