<svg width="45" height="42" viewBox="0 0 61 58" fill="none" xmlns="http://www.w3.org/2000/svg">
<path d="M6.92697 47.5026C7.41418 48.0461 7.98851 48.5079 8.62729 48.8696C14.2294 52.0444 23.6134 46.6175 30.653 36.5565C31.4014 35.4852 32.1254 34.3608 32.8128 33.1903L32.832 33.1579C33.4038 32.176 34.2666 31.3884 35.3057 30.9C36.3447 30.4116 37.5106 30.2456 38.6482 30.4239C49.0554 32.0779 56.5737 36.8743 56.5737 42.5337C56.5737 42.7045 56.5737 42.8754 56.5545 43.0463C56.0116 49.8402 44.621 55.2637 30.6513 55.2637C19.9917 55.2671 10.8427 52.1162 6.86084 47.5966" fill="#00272B"/>
<path d="M27.7363 2.76636C27.0397 2.90881 26.3706 3.15913 25.7541 3.50794C20.1154 6.70327 20.2494 17.5195 25.7071 28.604C26.2501 29.7062 26.8435 30.8117 27.4909 31.9121L27.5118 31.9463C28.1278 32.9882 28.4034 34.1907 28.3013 35.3912C28.1992 36.5918 27.7244 37.7327 26.941 38.6599C20.3364 46.4568 12.4962 50.3066 7.57621 47.5163C5.51565 46.3492 4.22606 44.1654 3.68481 41.3221C2.59884 35.6098 4.53236 27.2405 9.31307 19.1086C14.5689 10.1686 21.807 4.00689 27.7346 2.75781" fill="#0D7F8C"/>
<path d="M57.1672 41.546C57.1794 41.3751 57.1864 41.2042 57.1864 41.0334C57.1864 34.6564 47.6337 29.3747 35.1676 28.4503C33.8954 28.3563 32.5919 28.3067 31.264 28.3067H31.224C30.0144 28.3082 28.8332 27.9473 27.8381 27.2723C26.843 26.5972 26.0813 25.6401 25.6549 24.5287C21.9567 14.9086 22.4422 6.17529 27.4126 3.35759C29.5341 2.16148 32.1986 2.18711 35.0701 3.23456C40.594 5.25086 46.8888 11.0281 51.6034 19.0352C56.4624 27.3071 58.3803 35.8303 57.1672 41.546Z" fill="#339090"/>
</svg>
