<svg width="32" height="32" viewBox="0 0 48 48" fill="none" xmlns="http://www.w3.org/2000/svg">
<path d="M24 0C10.7674 0 0 10.7645 0 23.9985C0 37.2326 10.7674 47.997 24 47.997C37.2326 47.997 48 37.2326 48 23.9985C48 10.7645 37.2326 0 24 0ZM24 46.3985C11.649 46.3985 1.6015 36.3495 1.6015 23.9985C1.6015 11.6475 11.649 1.5985 24 1.5985C36.351 1.5985 46.3985 11.6475 46.3985 23.9985C46.3985 36.3495 36.351 46.3985 24 46.3985Z" fill="white"/>
<path d="M29.2386 10.528H25.2453C20.1595 10.4771 19.5099 13.6248 19.5099 17.0313V19.5084H17.2648C16.8233 19.4575 16.464 19.8152 16.5164 20.2567V24.7469C16.464 25.1885 16.8233 25.5462 17.2648 25.4953H19.5099V36.7207C19.4635 37.1623 19.8212 37.52 20.2627 37.4691H24.8352C25.2768 37.52 25.6345 37.1623 25.4938 36.7207L25.4968 25.4953H29.2386C29.6801 25.5462 30.0393 25.1885 29.987 24.7469V20.2567C30.0393 19.8152 29.6801 19.4575 29.2386 19.5084H25.4923L25.4968 17.2633C25.642 16.3069 25.642 16.4625 26.5295 16.5149H29.2072C29.4152 16.4685 29.6367 16.494 29.7924 16.3428C29.948 16.1916 30.0378 15.9851 29.9855 15.7666V11.2764C30.0393 10.8349 29.6801 10.4771 29.2386 10.528ZM28.4378 14.9344L26.561 14.8625C24.2365 14.8625 24.042 16.1243 24.042 17.416L24.036 20.2538C24.036 20.4663 24.1198 20.6698 24.2695 20.821C24.4191 20.9707 24.6227 21.0545 24.8352 21.0545H28.4902V23.9462H24.8382C24.3967 23.9462 24.039 24.3039 24.0375 24.7454L24.036 35.9724H21.0066V24.7469C21.0066 24.3054 20.7058 23.9477 20.2627 23.9477H18.0132V21.056H20.2627C20.4753 21.056 20.6788 20.9722 20.8285 20.8225C20.9782 20.6713 21.0051 20.4678 21.0051 20.2552V17.0298C21.0051 13.6741 21.6831 12.0756 25.2438 12.0756H28.4364L28.4378 14.9344Z" fill="white"/>
</svg>
