<svg width="60" height="56" viewBox="0 0 50 53" fill="none" xmlns="http://www.w3.org/2000/svg">
<path d="M46.6667 46.6666C46.6667 47.2855 46.4209 47.879 45.9833 48.3166C45.5457 48.7541 44.9522 49 44.3334 49H11.6667C11.0479 49 10.4544 48.7541 10.0168 48.3166C9.57921 47.879 9.33337 47.2855 9.33337 46.6666V25.6666H2.33337L26.4297 3.76131C26.8593 3.37042 27.4192 3.15381 28 3.15381C28.5809 3.15381 29.1408 3.37042 29.5704 3.76131L53.6667 25.6666H46.6667V46.6666ZM42 44.3333V21.3663L28 8.64031L14 21.3663V44.3333H42ZM28 39.6666L20.1624 31.829C19.6749 31.3415 19.2882 30.7627 19.0243 30.1257C18.7605 29.4888 18.6247 28.8061 18.6247 28.1166C18.6247 27.4272 18.7605 26.7445 19.0243 26.1075C19.2882 25.4706 19.6749 24.8918 20.1624 24.4043C20.6499 23.9168 21.2286 23.5301 21.8656 23.2662C22.5026 23.0024 23.1853 22.8666 23.8747 22.8666C24.5642 22.8666 25.2468 23.0024 25.8838 23.2662C26.5208 23.5301 27.0995 23.9168 27.587 24.4043L28 24.8173L28.413 24.4043C28.9006 23.9168 29.4793 23.5301 30.1163 23.2662C30.7532 23.0024 31.4359 22.8666 32.1254 22.8666C32.8148 22.8666 33.4975 23.0024 34.1345 23.2662C34.7714 23.5301 35.3502 23.9168 35.8377 24.4043C36.3252 24.8918 36.7119 25.4706 36.9758 26.1075C37.2396 26.7445 37.3754 27.4272 37.3754 28.1166C37.3754 28.8061 37.2396 29.4888 36.9758 30.1257C36.7119 30.7627 36.3252 31.3415 35.8377 31.829L28 39.6666Z" fill="#342B2D"/>
</svg>
