<svg width="60" height="56" viewBox="0 0 70 56" fill="none" xmlns="http://www.w3.org/2000/svg">
<path d="M32.9412 0L0 29.6471H9.88235V56H56V29.6471H65.8824L32.9412 0ZM32.9412 15.4824C39.8588 15.4824 45.4588 21.0824 45.4588 28C45.4588 37.8824 32.9412 49.4118 32.9412 49.4118C32.9412 49.4118 20.4235 37.8824 20.4235 28C20.4235 21.0824 26.0235 15.4824 32.9412 15.4824ZM32.9412 23.0588C31.6307 23.0588 30.3739 23.5794 29.4472 24.5061C28.5206 25.4327 28 26.6895 28 28C28 29.3105 28.5206 30.5673 29.4472 31.4939C30.3739 32.4206 31.6307 32.9412 32.9412 32.9412C34.2517 32.9412 35.5085 32.4206 36.4351 31.4939C37.3618 30.5673 37.8824 29.3105 37.8824 28C37.8824 26.6895 37.3618 25.4327 36.4351 24.5061C35.5085 23.5794 34.2517 23.0588 32.9412 23.0588Z" fill="#342B2D"/>
</svg>
