<svg width="32" height="32" viewBox="0 0 48 48" fill="none" xmlns="http://www.w3.org/2000/svg">
<path d="M30.9994 18C31.2647 18 31.5191 17.8946 31.7067 17.707C31.8943 17.5194 31.9997 17.265 31.9997 16.9997C31.9997 16.7344 31.8943 16.48 31.7067 16.2924C31.5191 16.1048 31.2647 15.9994 30.9994 15.9994C30.7341 15.9994 30.4797 16.1048 30.2921 16.2924C30.1045 16.48 29.9991 16.7344 29.9991 16.9997C29.9991 17.265 30.1045 17.5194 30.2921 17.707C30.4797 17.8946 30.7341 18 30.9994 18ZM16.236 14.0006C15.0017 14.0006 14.0006 15.0017 14.0006 16.236V31.764C14.0006 32.9983 15.0017 33.9994 16.236 33.9994H31.764C32.9983 33.9994 33.9994 32.9983 33.9994 31.764V16.236C33.9994 15.0017 32.9983 14.0006 31.764 14.0006H16.236ZM16.236 12H31.764C32.8875 12 33.9649 12.4463 34.7593 13.2407C35.5537 14.0351 36 15.1125 36 16.236V31.764C36 32.8875 35.5537 33.9649 34.7593 34.7593C33.9649 35.5537 32.8875 36 31.764 36H16.236C15.1125 36 14.0351 35.5537 13.2407 34.7593C12.4463 33.9649 12 32.8875 12 31.764V16.236C12 15.1125 12.4463 14.0351 13.2407 13.2407C14.0351 12.4463 15.1125 12 16.236 12ZM24 30C22.4087 30 20.8826 29.3679 19.7574 28.2426C18.6321 27.1174 18 25.5913 18 24C18 22.4087 18.6321 20.8826 19.7574 19.7574C20.8826 18.6321 22.4087 18 24 18C25.5913 18 27.1174 18.6321 28.2426 19.7574C29.3679 20.8826 30 22.4087 30 24C30 25.5913 29.3679 27.1174 28.2426 28.2426C27.1174 29.3679 25.5913 30 24 30ZM24 27.9994C25.0607 27.9994 26.078 27.5781 26.828 26.828C27.5781 26.078 27.9994 25.0607 27.9994 24C27.9994 22.9393 27.5781 21.922 26.828 21.172C26.078 20.4219 25.0607 20.0006 24 20.0006C22.9393 20.0006 21.922 20.4219 21.172 21.172C20.4219 21.922 20.0006 22.9393 20.0006 24C20.0006 25.0607 20.4219 26.078 21.172 26.828C21.922 27.5781 22.9393 27.9994 24 27.9994ZM24 48C10.7451 48 0 37.2549 0 24C0 10.7451 10.7451 0 24 0C37.2549 0 48 10.7451 48 24C48 37.2549 37.2549 48 24 48ZM24 45.9994C36.1509 45.9994 45.9994 36.1509 45.9994 24C45.9994 11.8491 36.1509 2.00057 24 2.00057C11.8491 2.00057 2.00057 11.8491 2.00057 24C2.00057 36.1509 11.8491 45.9994 24 45.9994Z" fill="white"/>
</svg>
