<svg width="35" height="35" viewBox="0 0 48 48" fill="none" xmlns="http://www.w3.org/2000/svg">
<path d="M29.2613 17.9407C28.2465 17.9407 27.495 18.1966 26.9068 18.5199C26.8125 18.1847 26.5027 17.9392 26.1374 18.0125H21.6709C21.2294 17.9392 20.8716 18.2969 21.0078 18.7609V35.2259C20.8716 35.6451 21.2294 36.0043 21.6709 35.9744H26.1374C26.579 36.0043 26.9367 35.6451 26.9367 35.2035L26.9352 25.2526C26.9337 25.2481 26.9173 24.7722 27.2181 24.4444C27.4591 24.1839 27.8737 24.0507 28.447 24.0507C29.402 24.0507 29.8271 24.4414 29.9858 25.3155V35.2035C29.8286 35.6451 30.1863 36.0043 30.6279 35.9744H35.3354C35.777 36.0043 36.1347 35.6451 35.976 35.2035V24.9832C36.1332 19.7863 32.4316 17.9407 29.2613 17.9407ZM34.5346 34.4775H31.4272V25.3155C31.4272 23.5478 30.2851 22.4521 28.4485 22.4521C27.4097 22.4521 26.6014 22.7574 26.0446 23.3592C25.2708 24.1974 25.3306 25.2601 25.4968 25.4966V34.4775H22.4702V19.5393H25.3381V20.0422C25.3381 20.3461 25.5103 20.626 25.7842 20.7592C26.0581 20.8924 26.3829 20.8595 26.6254 20.6754L26.835 20.5137C27.4412 20.0362 28.0683 19.5408 29.2628 19.5408C30.4992 19.5408 34.5361 19.9344 34.5361 24.9847L34.5346 34.4775Z" fill="white"/>
<path d="M16.5159 10.4778C14.8365 10.4778 13.4714 11.8429 13.4714 13.5223C13.4714 15.2017 14.8365 16.5668 16.5159 16.5668C18.1954 16.5668 19.5605 15.2017 19.5605 13.5223C19.5605 11.8429 18.1954 10.4778 16.5159 10.4778ZM16.5159 14.9682C15.7196 14.9682 15.07 14.3186 15.07 13.5223C15.07 12.726 15.7196 12.0764 16.5159 12.0764C17.3122 12.0764 17.9619 12.726 17.9619 13.5223C17.9619 14.3186 17.3122 14.9682 16.5159 14.9682Z" fill="white"/>
<path d="M18.6533 17.9392H14.2107C13.7692 17.9392 13.4114 18.2969 13.5222 18.761V35.226C13.4114 35.6451 13.7692 36.0043 14.2107 35.9744H18.6533C19.0948 36.0043 19.4526 35.6451 19.4526 35.2035V18.7385C19.4526 18.2969 19.0948 17.9392 18.6533 17.9392ZM18.0126 34.4776H15.01V19.5393H18.0126V34.4776Z" fill="white"/>
<path d="M24 0C10.7651 0 0 10.7651 0 24C0 37.2349 10.7651 48 24 48C37.2349 48 48 37.2349 48 24C48 10.7651 37.2349 0 24 0ZM24 46.4014C11.6482 46.4014 1.5986 36.3518 1.5986 24C1.5986 11.6482 11.6482 1.5986 24 1.5986C36.3518 1.5986 46.4014 11.6482 46.4014 24C46.4014 36.3518 36.3518 46.4014 24 46.4014Z" fill="white"/>
</svg>
