<svg width="24" height="24" viewBox="0 0 24 24" fill="none" xmlns="http://www.w3.org/2000/svg">
<path d="M9.42857 0C14.6358 0 18.8571 4.22132 18.8571 9.42857C18.8571 11.7236 18.0371 13.8272 16.6741 15.4622L23.7489 22.5368C24.0837 22.8715 24.0837 23.4142 23.7489 23.7489C23.4514 24.0465 22.9895 24.0796 22.6555 23.8481L22.5368 23.7489L15.4622 16.6741C13.8272 18.0371 11.7236 18.8571 9.42857 18.8571C4.22132 18.8571 0 14.6358 0 9.42857C0 4.22132 4.22132 0 9.42857 0ZM9.42857 1.71429C5.16809 1.71429 1.71429 5.16809 1.71429 9.42857C1.71429 13.6891 5.16809 17.1429 9.42857 17.1429C13.6891 17.1429 17.1429 13.6891 17.1429 9.42857C17.1429 5.16809 13.6891 1.71429 9.42857 1.71429Z"/>
</svg>
