<svg width="25" height="25" viewBox="0 0 25 25" fill="none" xmlns="http://www.w3.org/2000/svg">
<path d="M0.520833 0.520833H24.4792V24.4792H0.520833V0.520833Z" stroke="#342B2D" stroke-width="1.04167"/>
<path d="M8.33325 13.5417V17.7084" stroke="#342B2D" stroke-width="2.08333" stroke-linecap="round" stroke-linejoin="round"/>
<path d="M16.6667 5.20825V5.72909C16.6667 6.28162 16.8862 6.81152 17.2769 7.20222C17.6676 7.59293 18.1975 7.81242 18.7501 7.81242C19.3026 7.81242 19.8325 8.03191 20.2232 8.42261C20.6139 8.81331 20.8334 9.34322 20.8334 9.89575V10.4166" stroke="#342B2D" stroke-width="2.08333" stroke-linecap="round" stroke-linejoin="round"/>
<path d="M3.125 3.125L21.875 21.875" stroke="#342B2D" stroke-width="2.08333" stroke-linecap="round" stroke-linejoin="round"/>
<path d="M17.7083 13.5417H20.8333C21.1096 13.5417 21.3746 13.6515 21.5699 13.8468C21.7653 14.0422 21.875 14.3071 21.875 14.5834V16.6667C21.875 16.9584 21.7552 17.222 21.5625 17.4105M17.7083 17.7084H4.16667C3.8904 17.7084 3.62545 17.5987 3.4301 17.4033C3.23475 17.208 3.125 16.943 3.125 16.6667V14.5834C3.125 14.3071 3.23475 14.0422 3.4301 13.8468C3.62545 13.6515 3.8904 13.5417 4.16667 13.5417H13.5417" stroke="#342B2D" stroke-width="2.08333" stroke-linecap="round" stroke-linejoin="round"/>
</svg>
