<svg width="21" height="22" viewBox="0 0 21 22" fill="none" xmlns="http://www.w3.org/2000/svg">
<path fill-rule="evenodd" clip-rule="evenodd" d="M7.18374 11.1957L7.1564 12.8467H10.1371C10.7678 12.8467 11.2839 13.3629 11.2839 13.9935V15.1404H11.272V19.6268C11.272 20.2575 10.7558 20.7736 10.1251 20.7736H8.97832V15.5557C8.97832 15.0822 9.0672 15.1404 8.61086 15.1404H5.6575V15.1335H4.18594C3.23738 15.1335 2.45973 14.3576 2.45973 13.4073V7.75865C2.45973 6.79299 3.24934 6.00338 4.215 6.00338H5.08323C6.45907 6.00338 6.62144 6.72463 6.97181 7.4134V7.27838L8.4126 7.92785C9.47397 8.4064 9.20222 8.50041 9.92176 7.60824L10.8584 6.44775C11.3181 5.71454 13.1315 6.48022 12.3538 7.71079L10.9951 9.5669C10.4294 10.3394 9.67735 10.4488 8.76639 10.0694L7.18203 9.51221V11.1957H7.18374ZM20.573 10.7394C16.8335 10.7394 13.2614 10.7394 9.52182 10.7394C9.46542 10.7394 9.41928 10.7855 9.41928 10.8419V12.3032C9.41928 12.3579 9.46713 12.4058 9.52182 12.4058H14.2151V21.365C14.2151 21.4385 14.2766 21.5 14.3501 21.5H14.4014H14.4048H15.8405H15.8439H15.8951C15.9686 21.5 16.0302 21.4385 16.0302 21.365V12.404C16.4386 12.404 19.727 12.4929 20.5081 12.3664C20.614 12.3494 20.6739 12.3271 20.6739 12.3015V10.8402C20.6756 10.7855 20.6294 10.7394 20.573 10.7394ZM0.318195 9.57545H1.15396C1.32487 9.57545 1.43767 9.7173 1.46502 9.88651C1.7812 11.8793 1.95212 13.8722 1.94357 15.865H7.66743C7.89303 15.865 8.07761 16.0496 8.07761 16.2752V17.1041H7.74946V21.3462C7.74946 21.4145 7.69306 21.4709 7.6247 21.4709H6.52744C6.45907 21.4709 6.40267 21.4145 6.40267 21.3462V19.5003H1.71968C1.65131 20.0626 1.56756 20.6266 1.46673 21.1889C1.43596 21.3564 1.32658 21.5 1.15567 21.5H0.318195C0.147283 21.5 -0.0390113 21.353 0.00713502 21.1889C1.10952 17.3502 0.880497 13.597 0.00713502 9.8848C-0.0321748 9.72072 0.147283 9.57545 0.318195 9.57545ZM6.40267 18.9312V17.1058H1.92648C1.90084 17.8818 1.84786 18.1552 1.76411 18.9312H6.40267ZM5.03025 0.5C6.35653 0.5 7.42986 1.57504 7.42986 2.89961C7.42986 4.22418 6.35482 5.29922 5.03025 5.29922C3.70397 5.29922 2.63064 4.22418 2.63064 2.89961C2.63064 1.57504 3.70397 0.5 5.03025 0.5Z" fill="#342B2D"/>
</svg>
