<svg width="56" height="56" viewBox="0 0 56 56" fill="none" xmlns="http://www.w3.org/2000/svg">
<path d="M8 8.00001C8 3.58172 11.5817 0 16 0C20.4183 0 24 3.58172 24 8.00001C24 10.5791 22.7796 12.8731 20.8848 14.336C20.8278 14.3781 20.7712 14.4206 20.7149 14.4636C19.3928 15.4297 17.763 16 16 16C11.5817 16 8 12.4183 8 8.00001Z" fill="#342B2D"/>
<path d="M35.1153 14.336C35.1723 14.3781 35.2289 14.4206 35.2851 14.4637C36.6073 15.4298 38.2373 16 40.0001 16C44.4185 16 48.0001 12.4183 48.0001 8.00001C48.0001 3.58172 44.4185 0 40.0001 0C35.5818 0 32.0001 3.58172 32.0001 8.00001C32.0001 10.5791 33.2205 12.8731 35.1153 14.336Z" fill="#342B2D"/>
<path d="M21.0703 20C22.4535 17.6088 25.0389 16 28.0001 16C30.9612 16 33.5466 17.6088 34.9298 20C35.6105 21.1767 36.0001 22.5428 36.0001 24C36.0001 28.4183 32.4184 32 28.0001 32C23.5818 32 20.0001 28.4183 20.0001 24C20.0001 22.5428 20.3896 21.1767 21.0703 20Z" fill="#342B2D"/>
<path d="M5.99993 20H16.6829C16.2406 21.2511 16 22.5974 16 24C16 27.0734 17.1554 29.877 19.0556 32H17.9999C13.6594 32 9.96481 34.7656 8.58189 38.6304C7.22205 38.0772 5.96393 37.3544 4.84861 36.4592C1.83588 34.0411 0 30.4643 0 26C0 22.6864 2.68624 20 5.99993 20Z" fill="#342B2D"/>
<path d="M37.9999 32C42.3403 32 46.0351 34.7655 47.4179 38.6304C48.7779 38.0772 50.036 37.3544 51.1516 36.4592C54.164 34.0411 56 30.4643 56 26C56 22.6863 53.3136 20 50 20H39.3171C39.7591 21.2511 39.9999 22.5974 39.9999 24C39.9999 27.0734 38.8443 29.877 36.9443 32H37.9999Z" fill="#342B2D"/>
<path d="M43.5484 39.712C43.8392 40.4172 44 41.19 44 42C44 46.4644 42.164 50.0412 39.1516 52.4592C36.1864 54.8392 32.2123 56 28 56C23.7877 56 19.8137 54.8392 16.8486 52.4592C13.8359 50.0412 12 46.4644 12 42C12 41.19 12.1606 40.4172 12.4517 39.712C13.3511 37.5332 15.4964 36 17.9999 36H38C40.5036 36 42.6488 37.5332 43.5484 39.712Z" fill="#342B2D"/>
</svg>
