<svg width="48" height="48" viewBox="0 0 48 48" fill="none" xmlns="http://www.w3.org/2000/svg">
<path d="M24 0C10.7674 0 0 10.7645 0 23.9985C0 37.2326 10.7674 47.997 24 47.997C37.2326 47.997 48 37.2326 48 23.9985C48 10.7645 37.2326 0 24 0ZM24 46.3985C11.649 46.3985 1.6015 36.3495 1.6015 23.9985C1.6015 11.6475 11.649 1.5985 24 1.5985C36.351 1.5985 46.3985 11.6475 46.3985 23.9985C46.3985 36.3495 36.351 46.3985 24 46.3985Z" fill="white"/>
<path d="M37.1623 16.5833C37.3269 16.278 37.4646 15.9562 37.5709 15.6209C37.6712 15.3036 37.5679 14.9594 37.3075 14.7513C37.0485 14.5448 36.6863 14.5208 36.402 14.6885C35.6341 15.145 34.8079 15.4817 33.9383 15.6958C32.8936 14.7513 31.5211 14.2185 30.1037 14.2185C26.9531 14.2185 24.3907 16.7809 24.3907 19.9285C24.3907 20.0078 24.3922 20.0857 24.3952 20.165C21.05 19.7474 17.9623 18.0471 15.8115 15.4084C15.6469 15.2048 15.3924 15.0986 15.129 15.1165C14.8671 15.1375 14.6321 15.2842 14.5004 15.5132C13.9945 16.3813 13.7266 17.3736 13.7266 18.3854C13.7266 19.3433 13.9645 20.2653 14.4016 21.0825C14.2908 21.1005 14.1816 21.1409 14.0813 21.1992C13.8373 21.3444 13.6861 21.6363 13.6861 21.9192C13.6861 23.6179 14.442 25.1775 15.6603 26.2372C15.6424 26.2537 15.6259 26.2716 15.6079 26.2896C15.4208 26.5021 15.3595 26.7955 15.4463 27.0649C15.9716 28.7023 17.1885 29.9775 18.7151 30.6047C17.1571 31.3755 15.3475 31.6763 13.6173 31.4713C13.2521 31.4383 12.8974 31.6449 12.7701 31.9981C12.6459 32.3483 12.7776 32.739 13.0919 32.9411C15.4747 34.4677 18.2272 35.2744 21.053 35.2744C30.3028 35.2744 35.8317 27.7609 35.8317 20.4973C35.8317 20.415 35.8317 20.3341 35.8302 20.2518C36.7237 19.5543 37.4991 18.7207 38.1367 17.7672C38.3342 17.4724 38.3133 17.0802 38.0843 16.8078C37.8583 16.5399 37.4856 16.4471 37.1623 16.5833ZM34.5505 19.2101C34.3305 19.3687 34.2048 19.6277 34.2182 19.9001C34.2272 20.0976 34.2317 20.2982 34.2317 20.4958C34.2317 26.9736 29.303 33.6744 21.0545 33.6744C19.5743 33.6744 18.115 33.426 16.7335 32.944C18.3874 32.6282 19.938 31.9233 21.291 30.8636C21.5574 30.6541 21.6637 30.3008 21.5559 29.979C21.4482 29.6587 21.1503 29.4402 20.8121 29.4342C19.4785 29.4073 18.2691 28.7442 17.5282 27.695C17.9069 27.6696 18.2781 27.6067 18.6388 27.5094C18.9965 27.4121 19.239 27.0814 19.227 26.7102C19.215 26.3405 18.9486 26.0262 18.5849 25.9528C17.0837 25.652 15.9058 24.5414 15.4702 23.1016C15.8684 23.2019 16.277 23.2602 16.6856 23.2737C17.0373 23.2722 17.3636 23.0567 17.4729 22.7184C17.5821 22.3802 17.4534 22.0075 17.1556 21.8099C16.0106 21.0436 15.3266 19.7654 15.3266 18.3869C15.3266 18.0531 15.367 17.7238 15.4448 17.402C18.0356 20.0587 21.5514 21.6632 25.2753 21.8503C25.5387 21.8518 25.7692 21.7575 25.9294 21.5644C26.0895 21.3714 26.1509 21.1154 26.094 20.87C26.0237 20.5661 25.9877 20.2503 25.9877 19.9315C25.9877 17.664 27.8332 15.82 30.1007 15.82C31.2338 15.82 32.3279 16.293 33.1017 17.1192C33.2903 17.3212 33.5687 17.4095 33.8411 17.3571C34.088 17.3077 34.332 17.2509 34.573 17.185C34.4652 17.2658 34.3529 17.3407 34.2347 17.411C33.9114 17.6041 33.7677 17.9992 33.889 18.3555C34.0102 18.7117 34.3739 18.9452 34.7406 18.8898C34.8319 18.8793 34.9217 18.8673 35.013 18.8554C34.8648 18.9781 34.7092 19.0963 34.5505 19.2101Z" fill="white"/>
</svg>
