<svg width="24" height="17" viewBox="0 0 24 17" fill="none" xmlns="http://www.w3.org/2000/svg">
<path d="M23.8091 4.608C17.1652 -1.53713 6.8321 -1.53488 0.190843 4.608C-0.0589069 4.839 -0.063782 5.23013 0.177718 5.46975L1.46172 6.74363C1.69197 6.97238 2.06247 6.97725 2.30172 6.75788C7.77372 1.74488 16.2255 1.74375 21.6986 6.75788C21.9379 6.97725 22.3084 6.972 22.5386 6.74363L23.8226 5.46975C24.0637 5.23013 24.0589 4.839 23.8091 4.608ZM12 12C10.6743 12 9.59997 13.0744 9.59997 14.4C9.59997 15.7256 10.6743 16.8 12 16.8C13.3256 16.8 14.4 15.7256 14.4 14.4C14.4 13.0744 13.3256 12 12 12ZM19.6001 8.86538C15.2779 5.043 8.71722 5.04713 4.39985 8.86538C4.1411 9.09413 4.13285 9.49125 4.37847 9.73351L5.66997 11.0081C5.89497 11.2301 6.25722 11.2451 6.49685 11.0381C9.64497 8.31675 14.3621 8.32275 17.5027 11.0381C17.7424 11.2451 18.1046 11.2305 18.3296 11.0081L19.6211 9.73351C19.8671 9.49125 19.8585 9.09375 19.6001 8.86538Z" fill="#342B2D"/>
</svg>
